#!OML:ASF F:\VICON\USERDATA\INSTALL\Justin_Nancy\Justin_Nancy.ASF
:FULLY-SPECIFIED
:DEGREES
481
root 1.06397 17.7991 25.5161 3.61543 1.27315 -1.63545
lowerback 9.39183 -0.687756 -2.83522
upperback -0.158034 -1.12094 1.94757
thorax -5.34633 -0.450037 3.79289
lowerneck -18.5403 -5.74434 -10.5061
upperneck 16.7245 -6.92937 9.27298
head 8.99933 -2.97589 3.97292
rclavicle 2.78299e-015 -1.88845e-015
rhumerus -40.5023 -20.4418 -70.9077
rradius 28.3157
rwrist 6.27812
rhand -15.4684 12.1395
rfingers 7.12502
rthumb 10.7129 -17.5673
lclavicle 2.78299e-015 -1.88845e-015
lhumerus -35.3493 16.285 78.3981
lradius 39.2143
lwrist 0.227629
lhand -21.777 25.8446
lfingers 7.12502
lthumb 4.62414 55.7742
rfemur -14.3513 2.57971 16.8924
rtibia 6.07095
rfoot 2.66676 -5.04574
rtoes -11.9092
lfemur -6.78889 -0.897105 -19.1882
ltibia 28.1645
lfoot -10.9845 9.06895
ltoes -15.5945
482
root 1.03286 17.777 25.5758 3.4877 1.37619 -1.56368
lowerback 9.48952 -0.717516 -2.73088
upperback -0.297287 -1.15307 1.91359
thorax -5.54779 -0.462774 3.70757
lowerneck -18.2826 -5.68007 -10.5403
upperneck 16.9133 -6.85152 9.18608
head 9.00722 -2.95737 3.96521
rclavicle -1.46604e-014 1.93815e-014
rhumerus -41.0866 -20.6237 -70.6025
rradius 28.4406
rwrist 6.33024
rhand -15.4816 12.3718
rfingers 7.12502
rthumb 10.7002 -17.3357
lclavicle -1.46604e-014 1.93815e-014
lhumerus -35.3532 15.9284 78.1876
lradius 39.7376
lwrist 0.763526
lhand -21.7789 25.5091
lfingers 7.12502
lthumb 4.62222 55.4387
rfemur -13.5353 2.72024 16.93
rtibia 4.63224
rfoot 4.315 -4.43077
rtoes -12.0726
lfemur -6.61577 -0.91277 -19.1439
ltibia 28.5683
lfoot -11.268 9.0586
ltoes -16.4403
483
root 0.997035 17.7644 25.6436 3.35717 1.38765 -1.46394
lowerback 9.4317 -0.730503 -2.76739
upperback -0.320675 -1.17375 1.90598
thorax -5.53752 -0.471956 3.72203
lowerneck -18.0369 -5.64575 -10.6452
upperneck 16.8888 -6.79788 9.1831
head 8.95279 -2.9461 3.99204
rclavicle 8.94531e-016 -5.26779e-015
rhumerus -41.3269 -20.8433 -70.3831
rradius 28.3845
rwrist 6.50197
rhand -15.551 12.3932
rfingers 7.12502
rthumb 10.6333 -17.3178
lclavicle 8.94531e-016 -5.26779e-015
lhumerus -35.1686 15.8748 77.9486
lradius 40.1456
lwrist 1.14484
lhand -21.8774 24.988
lfingers 7.12502
lthumb 4.52719 54.9196
rfemur -13.086 2.96499 16.988
rtibia 4.03633
rfoot 5.62452 -4.03399
rtoes -10.7587
lfemur -6.40974 -0.829296 -19.0934
ltibia 28.9211
lfoot -11.6074 8.87408
ltoes -16.5896
484
root 0.953351 17.7599 25.7071 3.23825 1.38225 -1.37329
lowerback 9.30579 -0.723285 -2.88556
upperback -0.231568 -1.17418 1.90935
thorax -5.3704 -0.473874 3.78755
lowerneck -18.221 -5.69743 -10.6569
upperneck 16.9727 -6.82008 9.03359
head 9.01149 -2.96763 3.9369
rclavicle -5.57839e-015 1.49089e-014
rhumerus -41.3131 -21.0252 -70.373
rradius 28.4137
rwrist 6.54729
rhand -15.5136 12.1079
rfingers 7.12502
rthumb 10.6693 -17.6012
lclavicle -5.57839e-015 1.49089e-014
lhumerus -34.748 15.9532 77.7221
lradius 40.6842
lwrist 1.3367
lhand -21.8243 24.9096
lfingers 7.12502
lthumb 4.57845 54.8401
rfemur -13.2893 3.24533 17.1079
rtibia 4.79191
rfoot 6.18377 -3.72002
rtoes -3.98576
lfemur -6.20301 -0.673872 -18.997
ltibia 29.1307
lfoot -11.69 8.66829
ltoes -16.8816
485
root 0.909672 17.7527 25.7655 3.14419 1.31811 -0.964383
lowerback 9.17469 -0.676072 -3.30203
upperback -0.147868 -1.15808 1.81593
thorax -5.20415 -0.461205 3.91824
lowerneck -18.2296 -5.71157 -10.5982
upperneck 16.8947 -6.79785 8.79729
head 8.97252 -2.97748 3.8464
rclavicle -1.24489e-014 -3.37934e-015
rhumerus -41.2442 -21.1189 -70.4294
rradius 28.4006
rwrist 6.50147
rhand -15.4077 11.9876
rfingers 7.12502
rthumb 10.7715 -17.7162
lclavicle -1.24489e-014 -3.37934e-015
lhumerus -34.3461 15.7597 77.5895
lradius 41.33
lwrist 1.80351
lhand -21.8179 25.3444
lfingers 7.12502
lthumb 4.5846 55.2748
rfemur -13.6172 3.56713 16.902
rtibia 5.79166
rfoot 6.85134 -3.28301
rtoes 5.18952
lfemur -5.99938 -0.621134 -19.267
ltibia 29.266
lfoot -11.4877 8.54835
ltoes -17.2067
486
root 0.872406 17.7449 25.8405 3.03783 1.39318 -0.421321
lowerback 8.97088 -0.66642 -3.7305
upperback -0.0993234 -1.19064 1.69452
thorax -5.02983 -0.473027 4.03153
lowerneck -18.225 -5.71518 -10.7055
upperneck 16.9756 -6.76776 8.7473
head 8.99824 -2.97571 3.85186
rclavicle 1.89591e-014 0
rhumerus -41.2898 -21.0599 -70.4246
rradius 28.3133
rwrist 6.39281
rhand -15.4291 12.0396
rfingers 7.12502
rthumb 10.7509 -17.6653
lclavicle 1.89591e-014 0
lhumerus -34.0669 15.7346 77.4393
lradius 41.7504
lwrist 2.16716
lhand -21.9171 25.5289
lfingers 7.12502
lthumb 4.48883 55.4614
rfemur -13.7016 3.73016 16.522
rtibia 6.65415
rfoot 7.33657 -2.7448
rtoes 10.6269
lfemur -5.7202 -0.68412 -19.6926
ltibia 29.4246
lfoot -11.3953 8.36088
ltoes -16.9598
487
root 0.836982 17.7411 25.9268 2.83501 1.66554 -0.328886
lowerback 8.77541 -0.763371 -3.58535
upperback -0.0774111 -1.30064 1.64486
thorax -4.89015 -0.535607 3.9052
lowerneck -18.2889 -5.70551 -10.7107
upperneck 17.2812 -6.73835 8.62151
head 9.10685 -2.97402 3.8157
rclavicle 7.7526e-015 -2.10712e-014
rhumerus -41.5704 -20.8914 -70.5013
rradius 28.3843
rwrist 6.23679
rhand -15.5092 12.1089
rfingers 7.12502
rthumb 10.6736 -17.6
lclavicle 7.7526e-015 -2.10712e-014
lhumerus -33.9529 15.6827 77.1559
lradius 42.1136
lwrist 2.53133
lhand -21.8222 26.0828
lfingers 7.12502
lthumb 4.58046 56.0133
rfemur -13.5561 3.73277 16.6407
rtibia 7.55922
rfoot 6.807 -2.87477
rtoes 10.5569
lfemur -5.33336 -0.776571 -19.6025
ltibia 29.617
lfoot -11.3931 8.05596
ltoes -16.2319
488
root 0.791279 17.7354 26.0019 2.65586 1.88792 -0.42666
lowerback 8.68074 -0.819113 -3.43557
upperback -0.123263 -1.35419 1.70127
thorax -4.88181 -0.564579 3.88447
lowerneck -17.8574 -5.69458 -10.7187
upperneck 17.1315 -6.71632 8.43406
head 8.96908 -2.99433 3.75851
rclavicle -2.88486e-014 1.66979e-014
rhumerus -41.8732 -20.9934 -70.3867
rradius 28.4156
rwrist 6.43002
rhand -15.4278 12.2272
rfingers 7.12502
rthumb 10.7521 -17.4777
lclavicle -2.88486e-014 1.66979e-014
lhumerus -33.9003 15.4452 76.944
lradius 42.5355
lwrist 2.97917
lhand -21.6513 27.0295
lfingers 7.12502
lthumb 4.74552 56.9564
rfemur -13.3962 3.82082 17.063
rtibia 8.36864
rfoot 5.88893 -4.02922
rtoes 7.72635
lfemur -5.10036 -0.688166 -19.2145
ltibia 29.8563
lfoot -11.2021 7.54006
ltoes -15.9065
